<svg xmlns="http://www.w3.org/2000/svg" viewBox="0 0 48 48">
  <path d="M24 4C20.704135 4 18 6.7041348 18 10L7.5 10 A 1.50015 1.50015 0 1 0 7.5 13L10 13L10 38.5C10 41.533 12.467 44 15.5 44L25.632812 44C24.777812 43.111 24.050609 42.103 23.474609 41L15.5 41C14.122 41 13 39.878 13 38.5L13 13L35 13L35 22C36.034 22 37.035 22.133328 38 22.361328L38 13L40.5 13 A 1.50015 1.50015 0 1 0 40.5 10L30 10C30 6.7041348 27.295865 4 24 4 z M 24 7C25.674135 7 27 8.3258652 27 10L21 10C21 8.3258652 22.325865 7 24 7 z M 20.476562 17.978516 A 1.50015 1.50015 0 0 0 19 19.5L19 34.5 A 1.50015 1.50015 0 1 0 22 34.5L22 19.5 A 1.50015 1.50015 0 0 0 20.476562 17.978516 z M 27.5 18C26.671 18 26 18.671 26 19.5L26 25.632812C26.889 24.777812 27.897 24.050609 29 23.474609L29 19.5C29 18.671 28.329 18 27.5 18 z M 35 24C28.925 24 24 28.925 24 35C24 41.075 28.925 46 35 46C41.075 46 46 41.075 46 35C46 28.925 41.075 24 35 24 z M 30 29C30.25575 29 30.511531 29.097469 30.707031 29.292969L35 33.585938L39.292969 29.292969C39.683969 28.901969 40.316031 28.901969 40.707031 29.292969C41.098031 29.683969 41.098031 30.316031 40.707031 30.707031L36.414062 35L40.707031 39.292969C41.098031 39.683969 41.098031 40.316031 40.707031 40.707031C40.512031 40.902031 40.256 41 40 41C39.744 41 39.487969 40.902031 39.292969 40.707031L35 36.414062L30.707031 40.707031C30.512031 40.902031 30.256 41 30 41C29.744 41 29.487969 40.902031 29.292969 40.707031C28.901969 40.316031 28.901969 39.683969 29.292969 39.292969L33.585938 35L29.292969 30.707031C28.901969 30.316031 28.901969 29.683969 29.292969 29.292969C29.488469 29.097469 29.74425 29 30 29 z" fill="#5B5B5B" />
</svg>