<svg xmlns="http://www.w3.org/2000/svg" viewBox="0 0 48 48">
  <path d="M24 2.0605469C22.69451 2.0603273 21.38904 2.7122363 20.740234 4.015625 A 1.50015 1.50015 0 0 0 20.738281 4.0175781L15.912109 13.748047L5.1132812 15.308594C2.2327862 15.724793 1.011725 19.466982 3.1015625 21.494141L10.910156 29.066406L9.0664062 39.757812C8.5716739 42.628585 11.758566 44.929035 14.337891 43.580078L23.998047 38.527344L33.658203 43.580078 A 1.50015 1.50015 0 0 0 33.660156 43.580078C36.239747 44.928314 39.424325 42.628032 38.929688 39.757812L37.085938 29.066406L44.896484 21.494141C46.986322 19.466982 45.763308 15.724793 42.882812 15.308594L32.085938 13.75L27.257812 4.0175781C26.610905 2.7130209 25.30549 2.0607665 24 2.0605469 z M 23.998047 4.9394531C24.215806 4.9392335 24.434221 5.0751666 24.570312 5.3496094 A 1.50015 1.50015 0 0 0 24.570312 5.3515625L29.498047 15.285156C29.872846 16.042009 30.598588 16.565575 31.433594 16.685547L42.455078 18.279297C43.076583 18.369097 43.250803 18.909003 42.806641 19.339844L34.832031 27.074219C34.225984 27.661027 33.948231 28.515673 34.089844 29.34375 A 1.50015 1.50015 0 0 0 34.089844 29.345703L35.974609 40.267578C36.077972 40.867358 35.603237 41.211639 35.048828 40.921875L25.191406 35.765625C24.445966 35.374928 23.552081 35.374928 22.806641 35.765625L12.947266 40.921875C12.394591 41.210918 11.92017 40.866805 12.023438 40.267578L13.90625 29.345703 A 1.50015 1.50015 0 0 0 13.90625 29.34375C14.048489 28.514426 13.771582 27.662451 13.164062 27.074219L5.1894531 19.339844C4.7452906 18.909003 4.9214639 18.369097 5.5429688 18.279297L16.5625 16.685547C17.397906 16.565517 18.121656 16.040338 18.496094 15.289062 A 1.50015 1.50015 0 0 0 18.498047 15.287109L23.425781 5.3515625C23.562976 5.0759512 23.780287 4.9396727 23.998047 4.9394531 z M 21.845703 18C21.124703 18 20.504094 18.513656 20.371094 19.222656L19.525391 23.722656C19.443391 24.161656 19.560703 24.614031 19.845703 24.957031C20.129703 25.300031 20.554 25.5 21 25.5L24.25 25.5C25.215 25.5 26 26.285 26 27.25C26 28.696 24.913 29 24 29C22.385 29 21.484922 28.362453 21.419922 28.314453C20.772922 27.811453 19.840125 27.9205 19.328125 28.5625C18.810125 29.2095 18.9155 30.153875 19.5625 30.671875C19.7325 30.807875 21.302 32 24 32C26.944 32 28.999047 30.047 28.998047 27.25C28.998047 24.631 26.867047 22.5 24.248047 22.5L22.808594 22.5L23.089844 21L27 21C27.829 21 28.5 20.329 28.5 19.5C28.5 18.671 27.829 18 27 18L21.845703 18 z" fill="#5B5B5B" />
</svg>