<svg xmlns="http://www.w3.org/2000/svg" viewBox="0 0 48 48">
  <path d="M24.001953 5.0058594C22.955882 5.0058594 21.909151 5.3289202 21.025391 5.9746094C18.589933 7.7540002 14.120424 10.428017 9.1777344 10.943359C7.3494971 11.134389 5.9263066 12.736589 6.0058594 14.595703C6.8189924 33.623223 18.942558 40.96002 22.501953 42.654297C23.445286 43.102596 24.556667 43.102596 25.5 42.654297C29.059395 40.96002 41.182961 33.623223 41.996094 14.595703 A 1.50015 1.50015 0 0 0 41.996094 14.59375C42.073884 12.735328 40.652073 11.134526 38.824219 10.943359L38.822266 10.943359C33.880391 10.427569 29.411704 7.7537683 26.976562 5.9746094C26.092803 5.3289202 25.048025 5.0058594 24.001953 5.0058594 z M 24.001953 7.9941406C24.421382 7.9941406 24.839792 8.1281736 25.207031 8.3964844C27.879574 10.349094 32.712408 13.323077 38.511719 13.927734 A 1.50015 1.50015 0 0 0 38.513672 13.927734C38.818894 13.959484 39.010225 14.177821 38.998047 14.46875C38.236531 32.268675 27.197557 38.522323 24.212891 39.943359C24.066224 40.013059 23.935731 40.013059 23.789062 39.943359C20.804233 38.522268 9.7646471 32.268323 9.0039062 14.466797C8.991487 14.176561 9.1814415 13.959625 9.4882812 13.927734 A 1.50015 1.50015 0 0 0 9.4902344 13.927734C15.289548 13.323077 20.12238 10.349094 22.794922 8.3964844C23.162161 8.1281736 23.582525 7.9941406 24.001953 7.9941406 z" fill="#5B5B5B" />
</svg>