<svg xmlns="http://www.w3.org/2000/svg" viewBox="0 0 48 48">
  <path d="M15.5 7C13.032499 7 11 9.0324991 11 11.5L11 14L7.5 14C5.0324991 14 3 16.032499 3 18.5L3 33.5C3 35.967501 5.0324991 38 7.5 38L10.5 38 A 1.50015 1.50015 0 0 0 12 36.5L12 33C12 32.57675 12.213625 31.979396 12.542969 31.574219C12.872312 31.169042 13.227626 31 13.5 31L34.5 31C34.772374 31 35.127688 31.169042 35.457031 31.574219C35.786375 31.979396 36 32.57675 36 33L36 36.5 A 1.50015 1.50015 0 0 0 37.5 38L40.5 38C42.967501 38 45 35.967501 45 33.5L45 18.5C45 16.032499 42.967501 14 40.5 14L37 14L37 11.5C37 9.0324991 34.967501 7 32.5 7L15.5 7 z M 15.5 10L32.5 10C33.346499 10 34 10.653501 34 11.5L34 14L14 14L14 11.5C14 10.653501 14.653501 10 15.5 10 z M 7.5 17L40.5 17C41.346499 17 42 17.653501 42 18.5L42 33.5C42 34.346499 41.346499 35 40.5 35L39 35L39 33C39 31.76625 38.541563 30.612214 37.785156 29.681641C37.02875 28.751068 35.884626 28 34.5 28L13.5 28C12.115374 28 10.97125 28.751068 10.214844 29.681641C9.4584373 30.612214 9 31.76625 9 33L9 35L7.5 35C6.6535009 35 6 34.346499 6 33.5L6 18.5C6 17.653501 6.6535009 17 7.5 17 z M 16.976562 32.978516 A 1.50015 1.50015 0 0 0 15.5 34.5L15.5 39.5 A 1.50015 1.50015 0 1 0 18.5 39.5L18.5 34.5 A 1.50015 1.50015 0 0 0 16.976562 32.978516 z M 23.976562 32.978516 A 1.50015 1.50015 0 0 0 22.5 34.5L22.5 42.5 A 1.50015 1.50015 0 1 0 25.5 42.5L25.5 34.5 A 1.50015 1.50015 0 0 0 23.976562 32.978516 z M 30.976562 32.978516 A 1.50015 1.50015 0 0 0 29.5 34.5L29.5 39.5 A 1.50015 1.50015 0 1 0 32.5 39.5L32.5 34.5 A 1.50015 1.50015 0 0 0 30.976562 32.978516 z" fill="#5B5B5B" />
</svg>