<svg xmlns="http://www.w3.org/2000/svg" viewBox="0 0 48 48">
  <path d="M5.2070312 5C3.4299056 5 2 6.4884538 2 8.25L2 39.75C2 41.511546 3.4299056 43 5.2070312 43L42.791016 43C44.56825 43 45.998047 41.510508 45.998047 39.75L45.998047 8.2519531L45.998047 8.25C45.998802 6.4884725 44.569428 5 42.792969 5L5.2070312 5 z M 5.2070312 8L42.792969 8C42.893843 8 42.998217 8.08444 42.998047 8.2480469 A 1.50015 1.50015 0 0 0 42.998047 8.25L42.998047 39.75C42.998047 39.915492 42.893782 40 42.791016 40L5.2070312 40C5.1061569 40.000003 5 39.914454 5 39.75L5 8.25C5 8.0855462 5.1061569 8 5.2070312 8 z M 8.5 18 A 1.50015 1.50015 0 0 0 7 19.5L7 31.5 A 1.50015 1.50015 0 0 0 8.5 33L27.875 33L32.433594 37.560547 A 1.50015 1.50015 0 0 0 34.994141 36.5L34.994141 33.015625L39.478516 33.064453 A 1.50015 1.50015 0 0 0 40.994141 31.564453L40.994141 19.5 A 1.50015 1.50015 0 0 0 39.494141 18L8.5 18 z M 10 21L37.994141 21L37.994141 30.048828L33.511719 30 A 1.50015 1.50015 0 0 0 31.994141 31.5L31.994141 32.876953L29.556641 30.439453 A 1.50015 1.50015 0 0 0 28.496094 30L10 30L10 21 z M 12.955078 24C12.427078 24 12 24.428078 12 24.955078L12 26.044922C12 26.572922 12.428078 27 12.955078 27L14.044922 27C14.572922 27 15 26.571922 15 26.044922L15 24.955078C15 24.428078 14.571922 24 14.044922 24L12.955078 24 z M 17.955078 24C17.427078 24 17 24.428078 17 24.955078L17 26.044922C17 26.572922 17.428078 27 17.955078 27L19.044922 27C19.572922 27 20 26.571922 20 26.044922L20 24.955078C20 24.428078 19.571922 24 19.044922 24L17.955078 24 z M 22.955078 24C22.427078 24 22 24.428078 22 24.955078L22 26.044922C22 26.572922 22.428078 27 22.955078 27L24.044922 27C24.572922 27 25 26.571922 25 26.044922L25 24.955078C25 24.428078 24.571922 24 24.044922 24L22.955078 24 z M 27.955078 24C27.427078 24 27 24.428078 27 24.955078L27 26.044922C27 26.572922 27.428078 27 27.955078 27L29.044922 27C29.572922 27 30 26.571922 30 26.044922L30 24.955078C30 24.428078 29.571922 24 29.044922 24L27.955078 24 z M 32.955078 24C32.427078 24 32 24.428078 32 24.955078L32 26.044922C32 26.572922 32.428078 27 32.955078 27L34.044922 27C34.572922 27 35 26.571922 35 26.044922L35 24.955078C35 24.428078 34.571922 24 34.044922 24L32.955078 24 z" fill="#5B5B5B" />
</svg>