<svg xmlns="http://www.w3.org/2000/svg" viewBox="0 0 48 48">
  <path d="M24 2.0234375C23.247259 2.0234375 22.49384 2.3468337 22.005859 2.9921875L17.849609 8.4902344C17.73978 8.6355008 17.563795 8.7078923 17.382812 8.6835938L10.556641 7.7363281L10.554688 7.7363281C8.9513568 7.5131852 7.5119552 8.9513088 7.734375 10.554688L8.6835938 17.380859 A 1.50015 1.50015 0 0 0 8.6835938 17.382812C8.7088507 17.56416 8.6375618 17.736268 8.4902344 17.847656L2.9921875 22.005859C1.7014799 22.98182 1.7014799 25.016226 2.9921875 25.992188L8.4902344 30.150391C8.6360199 30.260613 8.7086776 30.435519 8.6835938 30.617188L7.734375 37.443359C7.5120671 39.045931 8.951376 40.485744 10.554688 40.263672L17.380859 39.314453 A 1.50015 1.50015 0 0 0 17.382812 39.314453C17.56416 39.289193 17.736268 39.360484 17.847656 39.507812L22.005859 45.005859C22.98182 46.296567 25.016226 46.296567 25.992188 45.005859L30.150391 39.507812C30.260613 39.362028 30.435519 39.289369 30.617188 39.314453L37.443359 40.263672C39.045931 40.48598 40.485744 39.04667 40.263672 37.443359L39.314453 30.617188C39.290483 30.43702 39.364493 30.260221 39.509766 30.150391L45.007812 25.994141C46.298521 25.01818 46.298521 22.98182 45.007812 22.005859L39.509766 17.849609C39.364499 17.73978 39.292108 17.563796 39.316406 17.382812L39.316406 17.380859L40.263672 10.554688C40.485933 8.9521625 39.048624 7.5142561 37.445312 7.7363281L30.617188 8.6835938C30.43584 8.7088509 30.261778 8.6375619 30.150391 8.4902344L25.994141 2.9921875C25.50616 2.3468337 24.752741 2.0234375 24 2.0234375 z M 24 5.3300781L27.757812 10.298828C28.520426 11.307501 29.776597 11.830993 31.03125 11.65625L37.201172 10.798828L36.34375 16.96875 A 1.50015 1.50015 0 0 0 36.34375 16.970703C36.170834 18.223035 36.690957 19.478408 37.701172 20.242188L42.669922 24L37.701172 27.757812C36.690957 28.521591 36.1725 29.776173 36.34375 31.027344 A 1.50015 1.50015 0 0 0 36.34375 31.029297L37.199219 37.199219L31.029297 36.34375 A 1.50015 1.50015 0 0 0 31.027344 36.34375C29.775012 36.170834 28.519637 36.689004 27.755859 37.699219L24 42.667969L20.242188 37.699219C19.479575 36.690546 18.223403 36.169007 16.96875 36.34375L10.798828 37.199219L11.654297 31.029297 A 1.50015 1.50015 0 0 0 11.654297 31.027344C11.827213 29.775012 11.309043 28.519637 10.298828 27.755859L5.3300781 24L10.298828 20.242188C11.307501 19.479574 11.82904 18.223403 11.654297 16.96875L10.798828 10.798828L16.96875 11.65625 A 1.50015 1.50015 0 0 0 16.970703 11.65625C18.223035 11.829166 19.478408 11.309043 20.242188 10.298828L24 5.3300781 z M 24 13C17.942442 13 13 17.942442 13 24C13 30.057558 17.942442 35 24 35C30.057558 35 35 30.057558 35 24C35 17.942442 30.057558 13 24 13 z M 24 16C28.436442 16 32 19.563558 32 24C32 28.436442 28.436442 32 24 32C19.563558 32 16 28.436442 16 24C16 19.563558 19.563558 16 24 16 z" fill="#5B5B5B" />
</svg>