<svg xmlns="http://www.w3.org/2000/svg" viewBox="0 0 48 48">
  <path d="M24 4C12.972066 4 4 12.972074 4 24C4 35.027926 12.972066 44 24 44C35.027934 44 44 35.027926 44 24C44 12.972074 35.027934 4 24 4 z M 22.570312 7.0722656C22.529488 7.2086287 22.5 7.3504107 22.5 7.5C22.5 8.328 23.172 9 24 9C24.482162 9 24.907169 8.7679194 25.181641 8.4140625C25.479812 8.7172271 25.765314 9.0317803 26.042969 9.3535156C25.713866 9.628743 25.5 10.037749 25.5 10.5C25.5 11.328 26.172 12 27 12C27.301132 12 27.57941 11.908805 27.814453 11.755859C28.081281 12.185246 28.328966 12.630092 28.564453 13.085938C28.526321 13.218099 28.5 13.355615 28.5 13.5C28.5 14.104438 28.859518 14.623885 29.375 14.861328C29.774718 15.86588 30.102056 16.929329 30.357422 18.048828C30.242394 18.020545 30.123714 18 30 18C29.172 18 28.5 18.672 28.5 19.5C28.5 20.328 29.172 21 30 21C30.300797 21 30.579571 20.910446 30.814453 20.757812C30.932143 21.796384 31 22.873581 31 24C31 24.127255 30.992242 24.253727 30.990234 24.380859C30.725523 24.14637 30.381175 24 30 24C29.172 24 28.5 24.672 28.5 25.5C28.5 26.328 29.172 27 30 27C30.312472 27 30.601492 26.90391 30.841797 26.740234C30.716806 27.848495 30.513931 28.945452 30.244141 30.025391C30.164366 30.01226 30.083474 30 30 30C29.172 30 28.5 30.672 28.5 31.5C28.5 32.100367 28.855339 32.615836 29.365234 32.855469C28.253177 35.81821 26.603216 38.579611 24.515625 40.974609C24.34272 40.97978 24.174185 41 24 41C23.470795 41 22.950291 40.96696 22.433594 40.919922C22.47284 40.786 22.5 40.646558 22.5 40.5C22.5 39.672 21.828 39 21 39C20.211391 39 19.571503 39.611405 19.511719 40.384766C17.285301 39.778501 15.245022 38.738944 13.484375 37.351562C13.408855 36.594096 12.777241 36 12 36C11.983939 36 11.969065 36.005357 11.953125 36.005859C11.42007 35.470985 10.936739 34.889049 10.478516 34.287109C10.409283 33.803877 10.112516 33.397592 9.6972656 33.177734C8.9780067 32.057423 8.3900251 30.849134 7.9472656 29.568359C8.2181265 29.835314 8.5899443 30 9 30C9.828 30 10.5 29.328 10.5 28.5C10.5 27.672 9.828 27 9 27C8.282019 27 7.6840626 27.505554 7.5371094 28.179688C7.1994375 26.840749 7 25.445557 7 24C7 21.793792 7.4325367 19.69387 8.1933594 17.761719C8.426732 17.911451 8.7023261 18 9 18C9.828 18 10.5 17.328 10.5 16.5C10.5 15.858128 10.094633 15.313603 9.5273438 15.099609C9.833306 14.602326 10.16354 14.123575 10.517578 13.662109C10.5994 14.413002 11.227452 15 12 15C12.828 15 13.5 14.328 13.5 13.5C13.5 12.672 12.828 12 12 12C11.980635 12 11.962547 12.005131 11.943359 12.005859C12.434899 11.51176 12.964548 11.057766 13.513672 10.626953C13.579115 11.394681 14.215423 12 15 12C15.828 12 16.5 11.328 16.5 10.5C16.5 9.920266 16.167301 9.4215475 15.685547 9.171875C16.089281 8.9454754 16.506312 8.74237 16.929688 8.5488281C17.201992 8.826676 17.580529 9 18 9C18.785967 9 19.424779 8.3927166 19.488281 7.6230469C20.482726 7.3506997 21.511199 7.1602325 22.570312 7.0722656 z M 26.828125 7.2519531C34.879836 8.5967129 41 15.559416 41 24C41 32.263343 35.139048 39.123481 27.337891 40.669922C30.922892 35.89692 33 30.029461 33 24C33 16.987375 30.721227 11.354556 26.828125 7.2519531 z M 21 9C20.172 9 19.5 9.672 19.5 10.5C19.5 11.328 20.172 12 21 12C21.828 12 22.5 11.328 22.5 10.5C22.5 9.672 21.828 9 21 9 z M 18 12C17.172 12 16.5 12.672 16.5 13.5C16.5 14.328 17.172 15 18 15C18.828 15 19.5 14.328 19.5 13.5C19.5 12.672 18.828 12 18 12 z M 24 12C23.172 12 22.5 12.672 22.5 13.5C22.5 14.328 23.172 15 24 15C24.828 15 25.5 14.328 25.5 13.5C25.5 12.672 24.828 12 24 12 z M 15 15C14.172 15 13.5 15.672 13.5 16.5C13.5 17.328 14.172 18 15 18C15.828 18 16.5 17.328 16.5 16.5C16.5 15.672 15.828 15 15 15 z M 21 15C20.172 15 19.5 15.672 19.5 16.5C19.5 17.328 20.172 18 21 18C21.828 18 22.5 17.328 22.5 16.5C22.5 15.672 21.828 15 21 15 z M 27 15C26.172 15 25.5 15.672 25.5 16.5C25.5 17.328 26.172 18 27 18C27.828 18 28.5 17.328 28.5 16.5C28.5 15.672 27.828 15 27 15 z M 12 18C11.172 18 10.5 18.672 10.5 19.5C10.5 20.328 11.172 21 12 21C12.828 21 13.5 20.328 13.5 19.5C13.5 18.672 12.828 18 12 18 z M 18 18C17.172 18 16.5 18.672 16.5 19.5C16.5 20.328 17.172 21 18 21C18.828 21 19.5 20.328 19.5 19.5C19.5 18.672 18.828 18 18 18 z M 24 18C23.172 18 22.5 18.672 22.5 19.5C22.5 20.328 23.172 21 24 21C24.828 21 25.5 20.328 25.5 19.5C25.5 18.672 24.828 18 24 18 z M 9 21C8.172 21 7.5 21.672 7.5 22.5C7.5 23.328 8.172 24 9 24C9.828 24 10.5 23.328 10.5 22.5C10.5 21.672 9.828 21 9 21 z M 15 21C14.172 21 13.5 21.672 13.5 22.5C13.5 23.328 14.172 24 15 24C15.828 24 16.5 23.328 16.5 22.5C16.5 21.672 15.828 21 15 21 z M 21 21C20.172 21 19.5 21.672 19.5 22.5C19.5 23.328 20.172 24 21 24C21.828 24 22.5 23.328 22.5 22.5C22.5 21.672 21.828 21 21 21 z M 27 21C26.172 21 25.5 21.672 25.5 22.5C25.5 23.328 26.172 24 27 24C27.828 24 28.5 23.328 28.5 22.5C28.5 21.672 27.828 21 27 21 z M 12 24C11.172 24 10.5 24.672 10.5 25.5C10.5 26.328 11.172 27 12 27C12.828 27 13.5 26.328 13.5 25.5C13.5 24.672 12.828 24 12 24 z M 18 24C17.172 24 16.5 24.672 16.5 25.5C16.5 26.328 17.172 27 18 27C18.828 27 19.5 26.328 19.5 25.5C19.5 24.672 18.828 24 18 24 z M 24 24C23.172 24 22.5 24.672 22.5 25.5C22.5 26.328 23.172 27 24 27C24.828 27 25.5 26.328 25.5 25.5C25.5 24.672 24.828 24 24 24 z M 15 27C14.172 27 13.5 27.672 13.5 28.5C13.5 29.328 14.172 30 15 30C15.828 30 16.5 29.328 16.5 28.5C16.5 27.672 15.828 27 15 27 z M 21 27C20.172 27 19.5 27.672 19.5 28.5C19.5 29.328 20.172 30 21 30C21.828 30 22.5 29.328 22.5 28.5C22.5 27.672 21.828 27 21 27 z M 27 27C26.172 27 25.5 27.672 25.5 28.5C25.5 29.328 26.172 30 27 30C27.828 30 28.5 29.328 28.5 28.5C28.5 27.672 27.828 27 27 27 z M 12 30C11.172 30 10.5 30.672 10.5 31.5C10.5 32.328 11.172 33 12 33C12.828 33 13.5 32.328 13.5 31.5C13.5 30.672 12.828 30 12 30 z M 18 30C17.172 30 16.5 30.672 16.5 31.5C16.5 32.328 17.172 33 18 33C18.828 33 19.5 32.328 19.5 31.5C19.5 30.672 18.828 30 18 30 z M 24 30C23.172 30 22.5 30.672 22.5 31.5C22.5 32.328 23.172 33 24 33C24.828 33 25.5 32.328 25.5 31.5C25.5 30.672 24.828 30 24 30 z M 15 33C14.172 33 13.5 33.672 13.5 34.5C13.5 35.328 14.172 36 15 36C15.828 36 16.5 35.328 16.5 34.5C16.5 33.672 15.828 33 15 33 z M 21 33C20.172 33 19.5 33.672 19.5 34.5C19.5 35.328 20.172 36 21 36C21.828 36 22.5 35.328 22.5 34.5C22.5 33.672 21.828 33 21 33 z M 27 33C26.172 33 25.5 33.672 25.5 34.5C25.5 35.328 26.172 36 27 36C27.828 36 28.5 35.328 28.5 34.5C28.5 33.672 27.828 33 27 33 z M 18 36C17.172 36 16.5 36.672 16.5 37.5C16.5 38.328 17.172 39 18 39C18.828 39 19.5 38.328 19.5 37.5C19.5 36.672 18.828 36 18 36 z M 24 36C23.172 36 22.5 36.672 22.5 37.5C22.5 38.328 23.172 39 24 39C24.828 39 25.5 38.328 25.5 37.5C25.5 36.672 24.828 36 24 36 z" fill="#5B5B5B" />
</svg>