<svg xmlns="http://www.w3.org/2000/svg" viewBox="0 0 48 48">
  <path d="M42.470703 3.9863281 A 1.50015 1.50015 0 0 0 41.439453 4.4394531L4.4394531 41.439453 A 1.50015 1.50015 0 1 0 6.5605469 43.560547L22.013672 28.107422C25.107567 27.539867 28.42003 28.439561 30.810547 30.830078C31.100547 31.120078 31.489141 31.269531 31.869141 31.269531C32.249141 31.269531 32.639688 31.120078 32.929688 30.830078C33.519688 30.250078 33.519688 29.300937 32.929688 28.710938C30.743236 26.524486 27.963297 25.305237 25.101562 25.019531L30.042969 20.078125C32.672782 21.000987 35.090902 22.501059 37.119141 24.529297C37.409141 24.819297 37.789687 24.970703 38.179688 24.970703C38.559687 24.970703 38.940234 24.819297 39.240234 24.529297C39.820234 23.939297 39.820234 22.990391 39.240234 22.400391C37.23005 20.390206 34.895519 18.832997 32.361328 17.759766L36.789062 13.332031C39.174693 14.58942 41.413703 16.214484 43.419922 18.220703C43.709922 18.510703 44.100469 18.660156 44.480469 18.660156C44.870469 18.660156 45.249063 18.510703 45.539062 18.220703C46.129062 17.630703 46.129063 16.679609 45.539062 16.099609C43.545435 14.097606 41.33238 12.455334 38.988281 11.132812L43.560547 6.5605469 A 1.50015 1.50015 0 0 0 42.470703 3.9863281 z M 22.900391 7.1210938C15.336843 7.3425171 7.8413281 10.338359 2.0800781 16.099609C1.4900781 16.679609 1.4900781 17.630703 2.0800781 18.220703C2.6700781 18.810703 3.6192187 18.810703 4.1992188 18.220703C11.359219 11.060703 21.499922 8.6407031 30.669922 10.970703L33.099609 8.5390625C29.790234 7.4921875 26.338367 7.0204468 22.900391 7.1210938 z M 23.810547 16.019531C17.980547 16.019531 12.510625 18.280391 8.390625 22.400391C7.800625 22.990391 7.800625 23.939297 8.390625 24.529297C8.970625 25.109297 9.9197656 25.109297 10.509766 24.529297C13.769766 21.259297 18.020078 19.350547 22.580078 19.060547L25.550781 16.089844C24.970781 16.039844 24.390547 16.019531 23.810547 16.019531 z M 24 34 A 4 4 0 0 0 24 42 A 4 4 0 0 0 24 34 z" fill="#5B5B5B" />
</svg>