<?xml version="1.0" encoding="UTF-8"?>
<svg id="Layer_2" data-name="Layer 2" xmlns="http://www.w3.org/2000/svg" viewBox="0 0 290.84 290.83">
  <defs>
    <style>
      .cls-1 {
        fill: #fbdc2c;
      }

      .cls-1, .cls-2, .cls-3 {
        stroke-width: 0px;
      }

      .cls-4 {
        fill: none;
        stroke: #fff;
        stroke-linecap: round;
        stroke-linejoin: round;
        stroke-width: 9px;
      }

      .cls-2 {
        fill: #83d2f5;
      }

      .cls-3 {
        fill: #4175ba;
      }
    </style>
  </defs>
  <g id="Layer_1-2" data-name="Layer 1">
    <g>
      <path class="cls-2" d="M145.42,0v145.42h-72.71C32.55,145.42,0,112.86,0,72.71h0C0,32.55,32.55,0,72.71,0h72.71Z"/>
      <path class="cls-3" d="M145.42,145.42v145.41h-64.19C36.36,290.83,0,254.47,0,209.61V72.71c0,40.15,32.55,72.71,72.71,72.71h72.71Z"/>
      <path class="cls-1" d="M290.84,218.12h0c0,40.16-32.55,72.71-72.71,72.71h-72.71v-145.41h72.71c40.16,0,72.71,32.55,72.71,72.7Z"/>
      <path class="cls-3" d="M290.84,81.22v136.9c0-40.15-32.55-72.7-72.71-72.7h-72.71V0h64.19c44.86,0,81.23,36.36,81.23,81.22Z"/>
      <g>
        <line class="cls-4" x1="39.01" y1="189.72" x2="87.48" y2="189.72"/>
        <line class="cls-4" x1="39.01" y1="207.01" x2="113.97" y2="207.01"/>
        <line class="cls-4" x1="39.01" y1="223.97" x2="113.97" y2="223.97"/>
      </g>
    </g>
  </g>
</svg>